<?xml version="1.0" encoding="utf-8"?>
<!-- Generator: Adobe Illustrator 19.2.1, SVG Export Plug-In . SVG Version: 6.00 Build 0)  -->
<!DOCTYPE svg PUBLIC "-//W3C//DTD SVG 1.1//EN" "http://www.w3.org/Graphics/SVG/1.1/DTD/svg11.dtd">
<svg version="1.1" id="Layer_1" xmlns="http://www.w3.org/2000/svg" xmlns:xlink="http://www.w3.org/1999/xlink" x="0px" y="0px"
	 width="83.8px" height="54.9px" viewBox="0 0 83.8 54.9" style="enable-background:new 0 0 83.8 54.9;" xml:space="preserve">
<style type="text/css">
	.st0{fill:#F8BE58;}
</style>
<path class="st0" d="M51.2,25.4l-0.1,0.1c0.1,0.3,0.2,0.6,0.1,1s-0.1,0.7-0.2,0.9c-0.1,0.5-0.2,1.1-0.4,1.7l-0.5,2.1
	c0,0-0.4,1.4-0.6,2.2l-0.6,2.1c-0.1,0.3-0.2,0.7-0.4,1.1s-0.3,0.8-0.5,1.3l0.1,0.1c0.2-0.2,0.3-0.3,0.5-0.3c0.2-0.1,0.4-0.1,0.6-0.1
	c0.3,0,0.7,0,1.1,0.1c0.4,0.1,0.7,0.2,1,0.4c0.3,0.2,0.6,0.5,0.8,0.8s0.3,0.6,0.4,1c0,0.1,0,0.3-0.1,0.6c-0.1,0.4-0.1,0.7-0.2,1
	c-0.1,0.2-0.2,0.5-0.3,0.8c-0.1,0.4-0.3,0.7-0.4,0.9c-0.1,0.1-0.2,0.3-0.4,0.6s-0.3,0.6-0.6,0.9l-0.6,0.9c-0.2,0.2-0.3,0.4-0.4,0.4
	c-0.1,0-0.1,0-0.1-0.1c0,0,0-0.1-0.1-0.1S49.1,45.9,49,46s-0.3,0.2-0.4,0.3h0.1v-0.1l-0.3-0.1c0,0-0.2-0.1-0.3,0
	c-0.1,0-0.1,0-0.1,0.1l-0.1,0.1c-0.1,0-0.2,0-0.2-0.1L47.5,46l-0.2-0.2c-0.1-0.1-0.2-0.2-0.3-0.4c-0.1-0.1-0.2-0.3-0.3-0.5
	s-0.1-0.3-0.1-0.4s0-0.3,0.1-0.5l0.2-0.4l0.2,0.2c0,0.1,0.1,0.2,0.1,0.2c0,0.1,0.1,0.1,0.1,0.1h0.2c0.1,0,0.2-0.1,0.3-0.3l0.4-0.6
	l0.4-0.7l0.3-0.6c0.2-0.4,0.3-0.8,0.5-1.3c0.1-0.5,0.3-0.9,0.4-1.2L49.7,39c-0.1,0-0.2,0.1-0.2,0.2c-0.1,0.1-0.1,0.3-0.3,0.3
	c-0.3,0.1-0.4,0.3-0.6,0.4l-0.3,0.5h-0.2c0,0.1,0,0.2-0.1,0.4s-0.2,0.4-0.4,0.6L47.2,42c-0.1,0.2-0.2,0.4-0.3,0.5
	c0.1,0.1,0.2,0.1,0.2,0l-0.4,0.4c-0.1,0.2-0.2,0.2-0.3,0.3h-0.9c-0.1,0-0.2-0.1-0.4-0.3l-0.4-0.6c-0.1-0.2-0.3-0.5-0.5-0.9
	c0-0.1,0-0.4,0.1-0.7c0.1-0.3,0.2-0.7,0.3-1.1s0.2-0.7,0.3-1l0.1-0.5c0.3-0.9,0.6-1.9,0.9-2.9l0.9-3.2c0.3-1.1,0.6-2.1,0.9-3.1
	c0.3-1,0.6-1.9,0.8-2.7c0.1-0.3,0.2-0.6,0.3-1s0.2-0.7,0.4-1c0.1-0.1,0.2-0.1,0.4-0.1h0.3c0,0,0.1,0,0.2,0.1l0.3,0.3
	c0.1,0.1,0.2,0.3,0.4,0.5C51.2,25.3,51.2,25.4,51.2,25.4L51.2,25.4z M60.3,41.3c-0.1,0.1-0.1,0.2-0.1,0.3v0.5c0,0,0,0.3-0.1,0.5
	c0,0.2-0.1,0.3-0.3,0.4h0.1c0,0,0.1,0,0.1,0.1s-0.1,0.1-0.1,0.2l-0.2,0.2c-0.1,0.1-0.1,0.3-0.1,0.5c-0.2,0.1-0.5,0.3-0.7,0.6
	l-0.7,0.7v0.2L58,45.7c-0.2,0.1-0.4,0.2-0.6,0.2C57.2,46,57,46,56.9,46c-0.5,0-0.9-0.1-1.2-0.3c-0.3-0.2-0.6-0.5-0.9-0.9
	c-0.2-0.3-0.4-0.7-0.6-1.1c-0.1-0.4-0.2-0.8-0.2-1v-0.8c0,0,0.1-0.7,0.2-1c0.1-0.3,0.1-0.5,0.2-0.7c0.1-0.2,0.1-0.3,0.1-0.4
	c0.3-1.2,0.6-2.1,0.9-2.9v-0.4c0.1,0,0.1-0.1,0.1-0.2s0.1-0.2,0.2-0.3c0.1,0,0.2,0,0.3-0.1l0.3-0.1c0.3,0,0.7,0.1,1.1,0.4
	c0.4,0.3,0.6,0.6,0.6,1c0,0.1,0,0.1-0.1,0.2l-0.1,0.3c-0.1,0.3-0.2,0.8-0.3,1.5c-0.1,0.6-0.2,1.1-0.4,1.4C57,40.7,57,40.9,57,41.1
	s-0.1,0.4-0.1,0.5c-0.2,0.6-0.3,1-0.4,1.2c-0.1,0.3-0.1,0.6,0,0.9c0.6-0.3,1.3-0.7,1.9-1.1C59.3,42.2,59.8,41.7,60.3,41.3L60.3,41.3
	z M59.3,31.6c-0.1,0.2-0.1,0.3-0.1,0.5s0.1,0.4,0.1,0.6s0,0.3-0.1,0.4s-0.3,0.2-0.6,0.2c-0.2,0-0.4,0-0.6-0.1
	c-0.2-0.1-0.4-0.2-0.5-0.2v-0.1c0,0,0-0.1-0.1-0.1c-0.2-0.1-0.4-0.3-0.5-0.6l-0.3-0.8c-0.1-0.1-0.1-0.3-0.1-0.4c0-0.2,0-0.3-0.1-0.5
	h0.7c0.2,0,0.3,0,0.5-0.1l0.4-0.1l0.4-0.1l0.3,0.3c0.1,0.1,0.2,0.2,0.2,0.3C59,30.9,59,31,59,31.2C59.1,31.3,59.1,31.4,59.3,31.6
	L59.3,31.6z M72,34l-0.1,0.1l-0.2,0.2h0.2v0.1l-0.1,0.1c0,0,0.1,0.1,0.3,0.1c-0.1,0.2-0.3,0.3-0.5,0.5s-0.2,0.4-0.2,0.6
	c-0.1,0.1-0.2,0.3-0.4,0.4c-0.1,0.2-0.3,0.3-0.4,0.4c0.1,0.1,0.2,0.1,0.2,0c-0.2,0.3-0.4,0.7-0.7,1.2c-0.3,0.4-0.5,0.8-0.7,1
	c-0.2,0.3-0.3,0.6-0.6,0.9l-0.6,1.1c-0.2,0.4-0.4,0.7-0.6,1l-0.4,0.7c-0.1,0.1-0.2,0.2-0.3,0.4l-0.3,0.6L66.3,44
	c0,0-0.2,0.4-0.2,0.6l-0.3,0.6c0,0-0.2,0.4-0.2,0.7c0,0-0.1,0-0.1,0.1l-0.2,0.1l-0.4,0.1c-0.2,0-0.5,0-0.7-0.2s-0.5-0.4-0.7-0.7
	c-0.2-0.3-0.4-0.5-0.5-0.8s-0.2-0.4-0.2-0.5v-0.6c0-0.3,0-0.8-0.1-1.2l-0.1-1.5c0,0-0.1-1-0.1-1.4c0-0.5,0-1-0.1-1.5
	c0-0.5-0.1-1.1-0.2-1.7l-0.1-0.2C62,35.8,62,35.7,62,35.6l-0.1-0.5h0.8c0,0,0.1,0,0.2,0.1l0.4,0.2l0.4,0.3L64,36
	c0.1,0.2,0.2,0.4,0.3,0.7l0.2,0.8c0,0.4,0,0.9,0.1,1.4s0.2,1.1,0.4,1.9l1.5-2.2c0,0,1-1.3,1.5-1.9l0.4-0.4l0.6-0.6
	c0.2-0.2,0.4-0.4,0.6-0.5c0.2-0.2,0.4-0.3,0.5-0.4s0.1-0.1,0.1-0.2s0.1-0.1,0.1-0.2l0.6-0.3l0.4-0.2c0.2-0.1,0.3-0.1,0.3-0.1L72,34
	L72,34z M71,36.5l-0.2,0.2l-0.1-0.1L71,36.5z M78.2,41c-0.1,0.1-0.1,0.2-0.1,0.3v0.5c0,0,0,0.3-0.1,0.5c0,0.2-0.1,0.3-0.3,0.4h0.1
	c0.1,0,0.1,0,0.1,0.1s-0.1,0.1-0.1,0.2l-0.2,0.2c-0.1,0.1-0.1,0.3-0.1,0.5c-0.2,0.1-0.5,0.3-0.7,0.6L76.1,45v0.2l-0.2,0.2
	c-0.2,0.1-0.4,0.2-0.6,0.2c-0.2,0.1-0.4,0.1-0.5,0.1c-0.5,0-0.9-0.1-1.2-0.3c-0.3-0.2-0.6-0.5-0.9-0.9c-0.2-0.3-0.4-0.7-0.6-1.1
	c-0.1-0.4-0.2-0.8-0.2-1v-0.8c0,0,0.1-0.7,0.2-1c0.1-0.3,0.1-0.5,0.2-0.7c0.1-0.2,0.1-0.3,0.1-0.4c0.3-1.2,0.6-2.1,0.9-2.9v-0.4
	c0.1,0,0.1-0.1,0.1-0.2s0.1-0.2,0.2-0.3c0.1,0,0.2,0,0.3-0.1l0.3-0.1c0.3,0,0.7,0.1,1.1,0.4c0.4,0.3,0.6,0.6,0.6,1
	c0,0.1,0,0.1-0.1,0.2l-0.1,0.3c-0.1,0.3-0.2,0.8-0.3,1.5c-0.1,0.6-0.2,1.1-0.4,1.4c-0.1,0.1-0.1,0.3-0.1,0.5s-0.1,0.4-0.1,0.5
	c-0.2,0.6-0.3,1-0.4,1.2c-0.1,0.3-0.1,0.6,0,0.9c0.6-0.3,1.3-0.7,1.9-1.1C77.3,41.9,77.8,41.4,78.2,41L78.2,41z M77.3,31.2
	c-0.1,0.2-0.1,0.3-0.1,0.5s0.1,0.4,0.1,0.6s0,0.3-0.1,0.4s-0.3,0.2-0.6,0.2c-0.2,0-0.4,0-0.6-0.1c-0.2-0.1-0.4-0.2-0.5-0.2v-0.1
	c0,0,0-0.1-0.1-0.1c-0.2-0.1-0.4-0.3-0.5-0.6L74.6,31c-0.1-0.1-0.1-0.3-0.1-0.4c0-0.2,0-0.3-0.1-0.5h0.7c0.2,0,0.3,0,0.5-0.1
	l0.4-0.1l0.4-0.1l0.3,0.3c0.1,0.1,0.2,0.2,0.2,0.3c0.1,0.1,0.1,0.2,0.1,0.4C77,30.9,77.1,31.1,77.3,31.2L77.3,31.2z M50.3,9.6
	c0,0,0.2,0.1,0.6,0.2L51,9.9l-0.1,0.3c0,0,0,0.1,0.1,0.3l-0.2,1l0.1,0.1v0.3l-0.2,0.4l0.1,0.2c-0.1,0.8-0.4,2.2-0.9,4.4
	c-0.1,0.6-0.2,1.1-0.4,1.5l0.1,0.1c-0.2,0.5-0.3,0.8-0.4,1v0.1h0.1v0.2c-0.1,0.1-0.2,0.3-0.2,0.6l0.1,0.1l-0.6,2h-0.2v0.2
	c0.1,0,0.1,0,0.2,0.1c-0.2,0.6-0.3,0.9-0.4,1.1l0.1,0.2c-0.2,0.6-0.3,1-0.5,1.4c0,0.2,0.1,0.4,0.1,0.5h-0.1v-0.2h-0.1
	c-0.1,0-0.1,0-0.1,0.1s0.1,0.2,0.2,0.2l-0.4,1.1l0.1,0.3c0,0.2-0.1,0.3-0.3,0.4c0,0.2,0.1,0.3,0.2,0.3v0.1h-0.2
	c-0.2,0-0.3-0.9-0.3-2.6v-0.3c0-0.2,0-0.5,0.1-0.8l-0.1-0.1c0.1-1.4,0.3-2.3,0.4-2.5c0,0,0-0.1-0.1-0.2c0.5-2.8,1.1-5.4,1.7-7.8
	v-0.1h-0.1c-0.4,0.9-0.6,1.5-0.8,1.7c0,0.1-0.5,1.1-1.5,3c-0.5,0.9-0.8,1.5-0.9,1.9c-0.1,0-0.2,0-0.3,0.1l0.1,0.1v0.1
	c-0.5,0.5-0.7,0.9-0.7,1c-0.2,0.3-0.4,0.6-0.7,1.1c-0.1,0-0.4,0.4-0.9,1.2c-0.7,0.8-1.4,1.4-1.9,1.7c-0.3,0.1-0.6,0.2-0.9,0.2
	c-0.8-0.3-1.2-0.7-1.2-1.1c-0.3-0.4-0.4-0.7-0.4-1c0-1.7,1.3-4.3,3.7-7.8c1.1-1.5,2.3-2.7,3.7-3.7c1.1-0.8,1.8-1.3,2.2-1.5
	c0.7,0,1-0.2,1-0.6c0.3-0.4,0.6-0.6,1.1-0.5C50,9.7,50.1,9.6,50.3,9.6L50.3,9.6z M40.8,23.2c0.3,0,0.9-0.7,1.8-2.2l0.7-0.8
	c0.1,0,0.1-0.2,0.2-0.6h0.1c0,0,0,0.1,0.1,0.1c0.2-0.4,0.6-1,1.2-1.9c0.4-0.8,0.7-1.3,0.8-1.3h0.1l0.1,0.1v-0.1l-0.1-0.4
	c0.4-0.7,0.7-1.1,0.7-1.2c0.2,0,0.3,0,0.3-0.1c0,0,0-0.1-0.1-0.3c0.2-0.5,0.4-0.8,0.7-1c0-0.2,0.1-0.3,0.1-0.3s0,0.1,0.1,0.1
	l0.1-0.2c-0.1-0.1-0.1-0.2-0.1-0.2c-1.5,1.3-2.6,2.4-3.1,3.3c-1.4,1.8-2.5,3.8-3.3,6C40.9,22.8,40.8,23.2,40.8,23.2L40.8,23.2z
	 M45.8,17.9c0,0,0,0.1-0.1,0.2h0.1c0.1,0,0.1,0,0.1-0.1v-0.1H45.8z M47.2,25.1v0.2h0.2v-0.2H47.2z M47.9,12.7v0.2H48
	c0,0,0-0.1,0.1-0.2H47.9L47.9,12.7z M48,21.9v0.2h0.1L48,21.9z M60,9.4c0.7,0.1,1,0.2,1,0.5s-0.2,0.6-0.5,1.1v0.1h-0.2
	c-0.3,0-0.8,0.6-1.4,1.7c-0.1,0-0.5,0.4-1.3,1.3c0,0.2-0.2,0.4-0.6,0.8c0,0.2-0.2,0.6-0.6,1.4c-0.7,1.9-1.2,3.6-1.5,5.1
	c-0.2,0.4-0.3,1.4-0.3,2.9c-0.4,1.4-0.8,2.1-1.4,2.1c-0.6-0.4-0.8-0.8-0.8-1.2c-0.6-0.2-0.8-0.6-0.8-1.1c0.3-0.5,0.5-1.1,0.7-1.8
	c0.3-0.4,0.4-0.7,0.4-1c0-0.1,0-0.7-0.1-1.8c0-0.1,0.1-0.2,0.1-0.2c-0.1,0-0.2-0.3-0.2-0.8v-0.1c0-0.1,0-0.1,0.1-0.1
	c-0.1-0.2-0.2-1-0.1-2.5v-0.4c0-0.1,0-0.2-0.1-0.3l0.1-0.3v-1.4l0.2-1.4l-0.1-0.5c0-0.2,0.2-0.4,0.4-0.6c0.4,0.3,1,0.7,1.7,1.2
	l0.2,0.5V13c-0.3,0.9-0.5,1.3-0.5,1.4c0,0.4,0.1,0.6,0.1,0.6c-0.1,0.4-0.2,0.7-0.2,1.1v0.2c1-1.7,1.5-2.7,1.8-2.9
	C57.4,10.9,58.8,9.7,60,9.4L60,9.4z M62,12.8l0.2,0.1h0.7L63,13h0.1c0.6,0.2,0.9,0.7,0.8,1.6v0.1c-0.1,0.5-0.3,1-0.8,1.7l-1,2.9
	c-0.3,0.8-0.6,1.5-1,2.1l-0.2,0.4v0.1l-0.3,0.6v0.2c-0.2,0.1-0.3,0.2-0.3,0.3v0.1h0.1v0.1c0,0.2-0.1,0.3-0.3,0.5v0.1h0.1v0.1
	L60,24.1v0.2l0.2,0.1c0.2,0,1.1-0.5,2.5-1.6c0.5-0.3,0.5-0.3,1-0.5h0.1c-0.2,0.4,0,0.5-0.3,0.6c0,0-0.2,0.2-0.5,0.6
	c-0.1,0-0.2,0.1-0.4,0.4c-0.1,0-0.3,0.2-0.4,0.6c0,0-0.3,0.2-0.7,0.6c-0.2,0-0.3,0.1-0.4,0.2v0.2H61v-0.1h-0.1v0.1
	c-0.1,0.3-0.1,0.5-0.2,0.5h-0.1v-0.1l0.1-0.2v-0.2c-0.2,0-0.3,0.1-0.3,0.2c0,0.2,0.1,0.3,0,0.4l-0.2,0.1v-0.1l0.1-0.2h-0.1
	c-0.1,0-0.1,0-0.1,0.1v0.2c-0.2,0-0.4-0.2-0.5-0.4c0,0.1-0.1,0.1-0.2,0.2c-0.5-0.4-0.8-0.9-0.9-1.4l0.1-0.5c0.4-2.6,0.6-3.9,0.7-3.9
	v-0.1c0.2-1.1,0.5-2.2,1-3.2c0.2-0.7,0.5-1.2,0.6-1.6C61.5,13.8,61.9,12.9,62,12.8L62,12.8z M61.4,17.5v0.1V17.5z M65.2,5.4h0.1
	c0.7,0.3,1.1,0.7,1,1.1c-0.1,0.5-0.2,0.7-0.4,0.8c-0.2,0-0.6,0.4-1.1,1.2c0,0-0.4,0.3-1,1c-0.2,0-0.4,0.1-0.4,0.4l-0.2,0.2V10
	c0.5-1.4,0.9-2.6,1.2-3.6V6.1l-0.1-0.2V5.7C64.8,5.6,65,5.5,65.2,5.4z M62.7,23.8c0,0.1-0.1,0.2-0.2,0.3V24
	C62.5,23.9,62.6,23.8,62.7,23.8L62.7,23.8z M63.9,9.2L64,9.1C63.9,9.1,63.9,9.1,63.9,9.2z M72.1,10.9h0.2V11l-0.1,0.1l0.1,0.2
	l-0.1,0.2c0.1,0.1,0.1,0.2,0.1,0.3V12c-0.1,0.5-0.3,1.4-0.8,2.6c-0.1,1-0.2,1.6-0.5,1.7h-0.1c-0.2-0.1-0.2-0.2-0.2-0.4
	s0-0.6,0.1-1.2l-0.1-0.2h0.1c0-0.7-0.1-1-0.3-1c-0.9,0.2-1.7,0.7-2.6,1.6c0,0-0.3,0.2-0.7,0.6c0.2,0.1,1.1,0.7,2.9,1.8
	c0.7,0.6,1.1,1,1.1,1.3c0.2,0.1,0.2,0.2,0.2,0.4v0.1c0,0.4-0.1,0.9-0.4,1.7c0,0.1-0.1,0.4-0.3,0.9c0,0-0.2,0.3-0.6,0.8
	c-0.9,0.8-1.7,1.4-2.2,1.6c0,0.1,0,0.1-0.1,0.1h-0.1c-0.7,0.5-1.1,0.8-1.4,0.8l-0.2,0.2H66l-0.3,0.3c0,0-0.1,0-0.1-0.1L65,26
	c-0.1,0.1-0.3,0.2-0.6,0.4h-0.1C64.1,26.2,64,26,64,25.6c-0.1,0-0.1-0.1-0.1-0.2v-0.7c0-0.4,0.4-1.2,1.3-2.4
	c0.8-0.9,1.6-1.5,2.3-1.8c0.2-0.1,0.4-0.2,0.7-0.3c0.3,0,0.6-0.1,0.9-0.3V20L68,20.9c-0.4,0.4-0.8,1-1.3,1.9V23
	c0.9-0.6,1.8-1.5,2.6-2.5c0.3-0.4,0.4-0.8,0.4-1.1c0-0.3-0.8-0.8-2.3-1.4c-0.9-0.4-1.4-0.8-1.4-1c-0.1,0-0.1,0-0.1-0.1
	c0-0.4,0.1-0.7,0.3-1.1l-0.1-0.1l0.1-0.2c-0.1-0.2-0.1-0.4-0.1-0.4c0.1-0.6,0.9-1.7,2.4-3.2c0.8-0.5,1.4-0.8,1.9-0.8h0.1
	c0.5,0,0.8,0.2,1,0.6l0.2,0.2c0.1-0.3,0.2-0.6,0.2-0.8C72,11.1,72.1,11,72.1,10.9L72.1,10.9z M68.1,13.3l0.2-0.1v-0.1
	C68.2,13.2,68.1,13.2,68.1,13.3z M83.1,10.3c0,0,0.2,0.1,0.6,0.2l0.1,0.1l-0.1,0.3c0,0,0,0.1,0.1,0.3l-0.2,1l0.1,0.1v0.3L83.5,13
	l0.1,0.2c-0.1,0.8-0.4,2.2-0.9,4.4c-0.1,0.6-0.2,1.1-0.4,1.5l0.1,0.1c-0.2,0.5-0.3,0.8-0.4,1v0.1h0.1v0.2c-0.1,0.1-0.2,0.3-0.2,0.6
	l0.1,0.1l-0.6,2h-0.2v0.2c0.1,0,0.1,0,0.2,0.1c-0.2,0.6-0.3,0.9-0.4,1.1l0.1,0.2c-0.2,0.6-0.3,1-0.5,1.4c0,0.2,0.1,0.4,0.1,0.5h-0.1
	v-0.2h-0.1c-0.1,0-0.1,0-0.1,0.1s0.1,0.2,0.2,0.2l-0.4,1.1l0.1,0.3c0,0.2-0.1,0.3-0.3,0.4c0,0.2,0.1,0.3,0.2,0.3V29H80
	c-0.2,0-0.3-0.9-0.3-2.6v-0.3c0-0.2,0-0.5,0.1-0.8l-0.1-0.1c0.1-1.4,0.3-2.3,0.4-2.5c0,0,0-0.1-0.1-0.2c0.5-2.8,1.1-5.4,1.7-7.8
	v-0.1h-0.1c-0.4,0.9-0.6,1.5-0.8,1.7c0,0.1-0.5,1.1-1.5,3c-0.5,0.9-0.8,1.5-0.9,1.9c-0.1,0-0.2,0-0.3,0.1l0.1,0.1v0.1
	c-0.5,0.5-0.7,0.9-0.7,1c-0.2,0.3-0.4,0.6-0.7,1.1c-0.1,0-0.4,0.4-0.9,1.2c-0.7,0.8-1.4,1.4-1.9,1.7c-0.3,0.1-0.6,0.2-0.9,0.2
	c-0.8-0.3-1.2-0.7-1.2-1.1c-0.3-0.4-0.4-0.7-0.4-1c0-1.7,1.3-4.3,3.7-7.8c1.1-1.5,2.3-2.7,3.7-3.7c1.1-0.8,1.8-1.3,2.2-1.5
	c0.7,0,1-0.2,1-0.6c0.3-0.4,0.6-0.6,1.1-0.5C82.9,10.4,83,10.3,83.1,10.3L83.1,10.3z M73.6,23.9c0.3,0,0.9-0.7,1.8-2.2l0.7-0.8
	c0.1,0,0.1-0.2,0.2-0.6h0.1c0,0,0,0.1,0.1,0.1c0.2-0.4,0.6-1,1.2-1.9c0.4-0.8,0.7-1.3,0.8-1.3h0.1l0.1,0.1v-0.1l-0.1-0.4
	c0.4-0.7,0.7-1.1,0.7-1.2c0.2,0,0.3,0,0.3-0.1c0,0,0-0.1-0.1-0.3c0.2-0.5,0.4-0.8,0.7-1c0-0.2,0.1-0.3,0.1-0.3s0,0.1,0.1,0.1
	l0.1-0.2c-0.1-0.1-0.1-0.2-0.1-0.2c-1.5,1.3-2.6,2.4-3.1,3.3c-1.4,1.8-2.5,3.8-3.3,6C73.7,23.5,73.6,23.9,73.6,23.9L73.6,23.9z
	 M78.6,18.6c0,0,0,0.1-0.1,0.2h0.1c0.1,0,0.1,0,0.1-0.1v-0.1H78.6z M80,25.8V26h0.2v-0.2H80z M80.8,13.4v0.2h0.1c0,0,0-0.1,0.1-0.2
	H80.8L80.8,13.4z M80.9,22.5v0.2H81L80.9,22.5z M54.9,46.9C53.1,49,53,49,50.8,50.8c-1.1,0.9-2.3,1.8-3.6,2.6
	c-0.7,0.4-1.3,0.7-2.1,1l-0.3,0.1c0,0-0.2,0.1-0.3,0.1l-0.6,0.2h-0.4l-0.3,0.1h-2l-1.4-0.3L38.5,54c-0.4-0.3-0.7-0.5-1.1-0.9
	c-0.3-0.3-0.6-0.6-0.8-1l-0.7-1c0,0-0.4-0.7-0.5-1.1c-0.2-0.4-0.3-0.7-0.4-1.1c-0.5-1.4-0.8-2.9-1.1-4.3c-0.2-1.4-0.4-2.8-0.5-4.3
	l-0.2-4.2c0-1.4,0-2.8,0.1-4.2c0.1-2.8,0.3-5.6,0.6-8.3c0.3-2.8,0.6-5.5,1-8.3l0.3-2.1l0.2-1l0.2-1c0.2-1.3,0.4-2.7,0.5-4v-3
	c0,0-0.1-0.1-0.1,0l-0.1,0.1c-1.9,2.3-3.6,4.8-5.2,7.5c-1.6,2.7-2.9,5.5-4.2,8.3c-1.2,2.9-2.3,5.7-3.3,8.6l-1.5,4.2L21,35l-0.4,1
	l-0.2,0.5l-0.1,0.3L20.2,37l-0.1,0.2c-0.2,0.5-0.4,0.9-0.7,1.3c-0.2,0.4-0.5,0.8-0.8,1.1l-0.2,0.2l-0.1,0.1L18.2,40l-0.5,0.3
	c-0.3,0.2-0.7,0.3-1.1,0.4c-0.4,0.1-0.8,0-1.2-0.1h-0.1c0,0-0.1,0-0.1-0.1c0,0-0.1,0-0.1-0.1L15,40.3l-0.3-0.1l-0.1-0.1L14.5,40
	c-0.3-0.2-0.6-0.5-0.8-0.9l-0.2-0.3l-0.1-0.1c0,0-0.1-0.1-0.1-0.2c-0.1-0.2-0.2-0.4-0.3-0.7l-0.1-0.2c0-0.1,0-0.1-0.1-0.2
	c0-0.1-0.1-0.2-0.1-0.4l-0.1-0.4c0,0-0.1-0.3-0.1-0.4v-0.4c0,0,0-0.3-0.1-0.4v-0.5c-0.1-0.6-0.1-1.3-0.1-1.9c0-1.3,0-2.6,0.1-4h-0.1
	c0,0,0.1-0.7,0.1-1.6c0.1-0.8,0.1-1.8,0.2-2.5c0,0,0.1,0,0.1-0.1c0,0,0.1-0.4,0.1-0.9c0.1-0.5,0.1-1.2,0.2-1.9h0.1
	c0.3-2.8,0.8-5.5,1.1-8.2h0.1l0.1-0.6c0-0.1,0-0.2,0.1-0.3c0-0.1,0-0.2,0.1-0.3c0-0.1,0-0.2,0.1-0.3v-1.2c0,0,0-0.1,0.1-0.1
	c0,0,0,0.1-0.1,0c0,0,0-0.1-0.1-0.1v-0.1h-0.1c0,0-0.1,0-0.1,0.1l-0.2,0.2L14,11.4l-0.1,0.2c-0.1,0.1-0.1,0.2-0.2,0.4
	s-0.3,0.5-0.4,0.8c-0.3,0.5-0.6,1.1-0.9,1.7c-0.6,1.2-1.2,2.5-1.7,3.6s-1,2.2-1.3,3C9.2,21.5,9.1,21.8,9,22c0,0.1-0.1,0.2-0.1,0.2
	v0.1c-0.5,1.3-0.9,2.2-1.3,3.1c-0.4,0.9-0.7,1.7-1.2,2.8c0.1-0.6,0.5-1.7-0.4,0.2c-0.5,1.3-1.3,2.9-2,4.6c-0.8,1.7-1.5,3.5-2.2,5
	l-1.5,3.3c-0.3,0.6-0.4,0.6-0.1-0.4c0.2-0.7,0.9-3,1.7-5.2c0.8-2.3,1.5-4.6,1.7-5.2s0.7-2,1-3.1s0.6-2.1,0.5-2.2
	c0.3-0.6,0.5-1.3,0.7-1.7C6,23,6.1,22.7,6.1,22.7c-0.1,0-0.8,1.5-1.6,3.4l-1.2,3c0,0-0.7,1.8-1,2.5C2.1,32.1,2,32.2,2,32
	s0.2-1.1,0.5-1.9c0,0,0.1-0.3,0.2-0.7c0.1-0.5,0.3-1.1,0.6-2c0.5-1.7,1.3-4,2.3-6.5c0.5-1.3,1.1-2.6,1.7-3.9s1.2-2.7,1.9-4.1l1-2.1
	c0.1-0.2,0.2-0.4,0.3-0.5l0.1-0.3l0.1-0.2l0.1-0.2c0.4-0.7,0.8-1.3,1.2-1.9s0.8-1.2,1.3-1.6c0.2-0.2,0.4-0.4,0.7-0.6
	c0.2-0.2,0.4-0.3,0.6-0.4C14.8,5,15,4.9,15.2,4.9l0.6-0.1h0.4c0.1,0,0.3,0,0.4,0.1L17,5l0.3,0.2l0.5,0.4l0.4,0.5
	c0.2,0.4,0.4,0.9,0.6,1.5C18.9,8.2,19,8.9,19,9.7c0,0.7,0,1.5-0.1,2.3v1.2l-0.1,0.3l-0.2,1.1c-0.1,0.7-0.2,1.5-0.4,2.2
	c-0.5,2.9-0.9,5.8-1.2,8.5C16.9,26,16.8,27,16.7,28s-0.2,2-0.2,2.7c0,0.9-0.1,1.9,0,2.8c0,0.5,0,0.9,0.1,1.4v0.4
	c0,0.1,0,0.2,0.1,0.3c0,0,0,0.1,0.1,0.1H17l0.1-0.1c0.1-0.1,0.1-0.2,0.2-0.2v-0.1c0.1-0.2,0.2-0.4,0.3-0.7c0.2-0.5,0.4-0.9,0.5-1.4
	c0.3-0.9,0.7-1.9,1-2.9l2.1-5.9c0.7-2,1.5-4,2.4-5.9c0.9-2,1.8-3.9,2.8-5.8s2.1-3.8,3.4-5.6c0.6-0.9,1.2-1.8,1.9-2.7l1-1.3l0.5-0.6
	l0.3-0.3l0.3-0.3l0.1-0.1L34,1.7c0-0.1,0.1-0.1,0.1-0.1l0.3-0.3c0.2-0.2,0.4-0.4,0.6-0.5c0.1-0.1,0.2-0.2,0.4-0.3
	c0.1-0.1,0.3-0.2,0.4-0.2c0,0,0.1,0,0.1-0.1c0,0,0.1,0,0.1-0.1L36.1,0H37c0.3,0,0.6,0,0.8,0.1c0.3,0.1,0.6,0.2,0.8,0.4l0.2,0.1
	l0.1,0.1L39,0.8l0.1,0.1L39.2,1l0.1,0.1v0.2l0.1,0.1c0,0,0,0.1,0.1,0.1c0.2,0.3,0.2,0.6,0.3,0.9v0.4c0,0,0,0.3,0.1,0.4
	C40,3.7,40,4.2,40,4.7v1.4c-0.1,0.9-0.2,1.8-0.3,2.6l-0.4,2.6c-0.1,0.4-0.2,0.9-0.2,1.3l-0.2,1.2c-0.3,1.5-0.5,2.9-0.7,4.4v-0.1
	c0.1-0.9,0.2-1.7,0.4-2.5c-0.2,1-0.3,2.1-0.4,3.1l0.1-0.6c-0.2,1.2-0.3,2.4-0.4,3.6c-0.3,2.4-0.4,4.4-0.5,5.1
	c-0.3,2-0.5,4.4-0.6,7.1c-0.1,1.4-0.1,2.8,0,4.3c0,1.5,0.2,3.1,0.4,4.8c-0.1,0,0,1.4,0.3,2.7c0.2,1,0.5,2,0.9,3
	c0.2,0.5,0.4,1,0.7,1.5l0.1,0.1l0.1,0.1l0.1,0.2c0.1,0.1,0.2,0.2,0.2,0.3l0.5,0.6c0,0,0.4,0.3,0.6,0.5l0.3,0.2l0.2,0.1
	c0.1,0,0.1,0,0.2,0.1c0.4,0.2,0.9,0.3,1.4,0.3h1.6c0.5-0.1,0.9-0.3,1.4-0.5l-0.2,0.1l-0.1,0.1h-0.1l-0.2,0.1L45,52.6h-0.2l-0.2,0.1
	l-0.2,0.1c-0.1,0-0.1,0-0.2,0.1h-0.9c-0.3,0-0.6,0-0.9-0.1c-0.3-0.1-0.3,0-0.1,0h1.5h-0.2h-1c-0.3,0-0.7-0.1-1-0.3
	c-0.3-0.1-0.6-0.3-0.9-0.6c-0.3-0.2-0.6-0.5-0.8-0.8c-0.5-0.6-0.9-1.3-1.2-2.1c-0.1-0.2-0.1-0.4-0.2-0.5c-0.1-0.2-0.1-0.4-0.2-0.5
	l-0.2-0.5c0-0.2-0.1-0.3-0.1-0.4h-0.1v0.1c0.3,1,0.6,1.8,1,2.6s0.8,1.5,1.4,2c0.3,0.3,0.6,0.5,0.9,0.7c0.3,0.2,0.7,0.3,1.1,0.4
	c0.4,0.1,0.8,0.1,1.3,0.1c0.4,0,0.9-0.1,1.4-0.3c0.5-0.1,0.9-0.3,1.3-0.5c0.2-0.1,0.4-0.2,0.5-0.2l0.2-0.1c0.1,0,0.2-0.1,0.2-0.1
	c0.1-0.1,0.3-0.2,0.4-0.2l0.2-0.1l0.2-0.1l0.3-0.2l0.2-0.1c0.1-0.1,0.3-0.1,0.3-0.2h0.1L48.8,51c0,0-0.2,0.1-0.3,0.2
	c-0.6,0.4-1.1,0.8-1.8,1.1c-0.6,0.3-1.3,0.6-2,0.8c-0.7,0.2-1.5,0.3-2.2,0.2c-0.4,0-0.7-0.1-1.1-0.3c-0.3-0.1-0.7-0.3-1-0.6
	c-0.6-0.5-1.1-1-1.5-1.7c-0.2-0.3-0.4-0.7-0.5-1c-0.2-0.3-0.3-0.7-0.4-1c-0.1-0.3-0.2-0.7-0.4-1.1l-0.3-1.1
	c-0.2-0.6-0.3-1.3-0.4-1.9c0.1,0.6,0.1,0.8,0.2,1v0.2L37,45.3c-0.1-0.5-0.2-0.9-0.2-1.4c0-0.6-0.1-0.9-0.1-1.4l-0.5-4v2
	c0,0.4,0.2,0.8,0.1,1.2C36,43.3,37,46.4,37.1,48c-0.1-0.1-1.1-3.5-1.3-4.2c-0.3-1.1-0.6-4.8-0.4-2.2l0.1,2.9c0.2,1,0.4,2.1,0.7,3.1
	c0,0.1,0,0.1,0.1,0.2c0.4,0.9,0.6,1.6,0.7,1.8c0.3,0.5,0.7,1.2,0.8,1.5c0.7,1.1,0.4,0.8-0.3-0.3c0,0,0-0.1-0.1-0.1
	c0,0,0,0.1,0.1,0.1c0.3,0.5,0.6,1.1,1,1.5l0.2,0.2l0.2,0.2l0.1,0.1l0.1,0.1l0.2,0.2l0.2,0.2l0.1,0.1l0.1,0.1l0.2,0.2l0.2,0.1
	c0.3,0.2,0.6,0.4,0.9,0.5l0.5,0.2c0.1,0,0.2,0,0.2,0.1h0.2c0.1,0,0.2,0.1,0.4,0.1h1.6c0.2,0,0.4,0,0.5-0.1c0.2,0,0.3,0,0.4-0.1
	c0.2,0,0.4-0.1,0.5-0.1s1.4-0.4,2.7-1.2c1.7-1,3.6-2.5,4.9-3.7C53.8,47.9,53.8,47.8,54.9,46.9L54.9,46.9z"/>
</svg>
