<?xml version="1.0" encoding="utf-8"?>
<!-- Generator: Adobe Illustrator 22.0.1, SVG Export Plug-In . SVG Version: 6.00 Build 0)  -->
<!DOCTYPE svg PUBLIC "-//W3C//DTD SVG 1.1//EN" "http://www.w3.org/Graphics/SVG/1.1/DTD/svg11.dtd">
<svg version="1.1" xmlns="http://www.w3.org/2000/svg" xmlns:xlink="http://www.w3.org/1999/xlink" x="0px" y="0px" width="88.4px"
	 height="88.4px" viewBox="0 0 88.4 88.4" style="enable-background:new 0 0 88.4 88.4;" xml:space="preserve">
<style type="text/css">
	.st0{fill:#F7BE58;}
</style>
<g id="Layer_1">
</g>
<g id="Isolation_Mode">
	<g>
		<path class="st0" d="M88.4,75.5c-2.9,3.4-3.1,3.4-6.6,6.3C80,83.3,78.1,84.7,76,86c-1.1,0.6-2.1,1.1-3.4,1.6l-0.5,0.2
			c0,0-0.3,0.2-0.5,0.2l-1,0.3H70l-0.5,0.2h-3.2l-2.3-0.5L62,87c-0.6-0.5-1.1-0.8-1.8-1.4c-0.5-0.5-1-1-1.3-1.6l-1.1-1.6
			c0,0-0.6-1.1-0.8-1.8c-0.3-0.6-0.5-1.1-0.6-1.8c-0.8-2.3-1.3-4.7-1.8-6.9c-0.3-2.3-0.6-4.5-0.8-6.9l-0.3-6.8c0-2.3,0-4.5,0.2-6.8
			c0.2-4.5,0.5-9,1-13.4c0.5-4.5,1-8.9,1.6-13.4l0.5-3.4l0.3-1.6l0.3-1.6c0.3-2.1,0.6-4.3,0.8-6.4V6.8c0,0-0.2-0.2-0.2,0l-0.2,0.2
			c-3.1,3.7-5.8,7.7-8.4,12.1c-2.6,4.3-4.7,8.9-6.8,13.4c-1.9,4.7-3.7,9.2-5.3,13.9L34.9,53l-1.1,3.4L33.2,58l-0.3,0.8l-0.2,0.5
			l-0.2,0.3l-0.2,0.3c-0.3,0.8-0.6,1.4-1.1,2.1c-0.3,0.6-0.8,1.3-1.3,1.8l-0.3,0.3l-0.2,0.2l-0.2,0.2l-0.8,0.5
			c-0.5,0.3-1.1,0.5-1.8,0.6c-0.6,0.2-1.3,0-1.9-0.2h-0.2c0,0-0.2,0-0.2-0.2c0,0-0.2,0-0.2-0.2l-0.2-0.2l-0.5-0.2l-0.2-0.2l-0.2-0.2
			c-0.5-0.3-1-0.8-1.3-1.4l-0.3-0.5l-0.2-0.2c0,0-0.2-0.2-0.2-0.3c-0.2-0.3-0.3-0.6-0.5-1.1l-0.2-0.3c0-0.2,0-0.2-0.2-0.3
			c0-0.2-0.2-0.3-0.2-0.6L20.3,59c0,0-0.2-0.5-0.2-0.6v-0.6c0,0,0-0.5-0.2-0.6v-0.8c-0.2-1-0.2-2.1-0.2-3.1c0-2.1,0-4.2,0.2-6.4
			h-0.2c0,0,0.2-1.1,0.2-2.6c0.2-1.3,0.2-2.9,0.3-4c0,0,0.2,0,0.2-0.2c0,0,0.2-0.6,0.2-1.4c0.2-0.8,0.2-1.9,0.3-3.1h0.2
			c0.5-4.5,1.3-8.9,1.8-13.2H23l0.2-1c0-0.2,0-0.3,0.2-0.5c0-0.2,0-0.3,0.2-0.5c0-0.2,0-0.3,0.2-0.5v-1.9c0,0,0-0.2,0.2-0.2
			c0,0,0,0.2-0.2,0c0,0,0-0.2-0.2-0.2v-0.2h-0.2c0,0-0.2,0-0.2,0.2l-0.3,0.3l-0.3,0.5l-0.2,0.3c-0.2,0.2-0.2,0.3-0.3,0.6
			s-0.5,0.8-0.6,1.3c-0.5,0.8-1,1.8-1.4,2.7c-1,1.9-1.9,4-2.7,5.8c-0.8,1.8-1.6,3.5-2.1,4.8c-0.3,0.6-0.5,1.1-0.6,1.4
			c0,0.2-0.2,0.3-0.2,0.3v0.2c-0.8,2.1-1.4,3.5-2.1,5c-0.6,1.4-1.1,2.7-1.9,4.5c0.2-1,0.8-2.7-0.6,0.3c-0.8,2.1-2.1,4.7-3.2,7.4
			c-1.3,2.7-2.4,5.6-3.5,8.1l-2.4,5.3c-0.5,1-0.6,1-0.2-0.6C0.6,64.8,1.7,61,3,57.5c1.3-3.7,2.4-7.4,2.7-8.4c0.3-1,1.1-3.2,1.6-5
			c0.5-1.8,1-3.4,0.8-3.5c0.5-1,0.8-2.1,1.1-2.7c0.3-0.8,0.5-1.3,0.5-1.3c-0.2,0-1.3,2.4-2.6,5.5l-1.9,4.8c0,0-1.1,2.9-1.6,4
			c-0.3,0.8-0.5,1-0.5,0.6s0.3-1.8,0.8-3.1c0,0,0.2-0.5,0.3-1.1c0.2-0.8,0.5-1.8,1-3.2c0.8-2.7,2.1-6.4,3.7-10.5
			c0.8-2.1,1.8-4.2,2.7-6.3s1.9-4.3,3.1-6.6l1.6-3.4c0.2-0.3,0.3-0.6,0.5-0.8l0.2-0.5l0.2-0.3l0.2-0.3c0.6-1.1,1.3-2.1,1.9-3.1
			c0.6-1,1.3-1.9,2.1-2.6c0.3-0.3,0.6-0.6,1.1-1c0.3-0.3,0.6-0.5,1-0.6c0.3-0.2,0.6-0.3,1-0.3l1-0.2h0.6c0.2,0,0.5,0,0.6,0.2
			l0.6,0.2l0.5,0.3L28.6,9l0.6,0.8c0.3,0.6,0.6,1.4,1,2.4c0.2,1,0.3,2.1,0.3,3.4c0,1.1,0,2.4-0.2,3.7v1.9l-0.2,0.5l-0.3,1.8
			c-0.2,1.1-0.3,2.4-0.6,3.5c-0.8,4.7-1.4,9.3-1.9,13.7c-0.2,1.1-0.3,2.7-0.5,4.3c-0.2,1.6-0.3,3.2-0.3,4.3c0,1.4-0.2,3.1,0,4.5
			c0,0.8,0,1.4,0.2,2.3v0.6c0,0.2,0,0.3,0.2,0.5c0,0,0,0.2,0.2,0.2h0.3l0.2-0.2c0.2-0.2,0.2-0.3,0.3-0.3v-0.2
			c0.2-0.3,0.3-0.6,0.5-1.1c0.3-0.8,0.6-1.4,0.8-2.3c0.5-1.4,1.1-3.1,1.6-4.7l3.4-9.5c1.1-3.2,2.4-6.4,3.9-9.5
			c1.4-3.2,2.9-6.3,4.5-9.3s3.4-6.1,5.5-9c1-1.4,1.9-2.9,3.1-4.3L52.6,5l0.8-1l0.5-0.5l0.5-0.5l0.2-0.2l0.2-0.2
			c0-0.2,0.2-0.2,0.2-0.2l0.5-0.5c0.3-0.3,0.6-0.6,1-0.8C56.5,1.1,56.7,1,57,0.8c0.2-0.2,0.5-0.3,0.6-0.3c0,0,0.2,0,0.2-0.2
			c0,0,0.2,0,0.2-0.2L58.1,0h1.4c0.5,0,1,0,1.3,0.2c0.5,0.2,1,0.3,1.3,0.6L62.5,1l0.2,0.2l0.2,0.2l0.2,0.2l0.2,0.2l0.2,0.2v0.3
			l0.2,0.2c0,0,0,0.2,0.2,0.2c0.3,0.5,0.3,1,0.5,1.4v0.6c0,0,0,0.5,0.2,0.6c0.2,0.8,0.2,1.6,0.2,2.4v2.3c-0.2,1.4-0.3,2.9-0.5,4.2
			l-0.6,4.2c-0.2,0.6-0.3,1.4-0.3,2.1l-0.3,1.9c-0.5,2.4-0.8,4.7-1.1,7.1v-0.2c0.2-1.4,0.3-2.7,0.6-4c-0.3,1.6-0.5,3.4-0.6,5l0.2-1
			C61.3,31.1,61.2,33,61,35c-0.5,3.9-0.6,7.1-0.8,8.2c-0.5,3.2-0.8,7.1-1,11.4c-0.2,2.3-0.2,4.5,0,6.9c0,2.4,0.3,5,0.6,7.7
			c-0.2,0,0,2.3,0.5,4.3c0.3,1.6,0.8,3.2,1.4,4.8c0.3,0.8,0.6,1.6,1.1,2.4l0.2,0.2l0.2,0.2l0.2,0.3c0.2,0.2,0.3,0.3,0.3,0.5l0.8,1
			c0,0,0.6,0.5,1,0.8l0.5,0.3l0.3,0.2c0.2,0,0.2,0,0.3,0.2c0.6,0.3,1.4,0.5,2.3,0.5h2.6c0.8-0.2,1.4-0.5,2.3-0.8l-0.3,0.2l-0.2,0.2
			h-0.2l-0.3,0.2l-0.3,0.2h-0.3l-0.3,0.2L71.5,85c-0.2,0-0.2,0-0.3,0.2h-1.4c-0.5,0-1,0-1.4-0.2s-0.5,0-0.2,0h2.4h-0.3h-1.6
			c-0.5,0-1.1-0.2-1.6-0.5c-0.5-0.2-1-0.5-1.4-1c-0.5-0.3-1-0.8-1.3-1.3c-0.8-1-1.4-2.1-1.9-3.4c-0.2-0.3-0.2-0.6-0.3-0.8
			c-0.2-0.3-0.2-0.6-0.3-0.8l-0.3-0.8c0-0.3-0.2-0.5-0.2-0.6H61V76c0.5,1.6,1,2.9,1.6,4.2c0.6,1.3,1.3,2.4,2.3,3.2
			c0.5,0.5,1,0.8,1.4,1.1c0.5,0.3,1.1,0.5,1.8,0.6c0.6,0.2,1.3,0.2,2.1,0.2c0.6,0,1.4-0.2,2.3-0.5c0.8-0.2,1.4-0.5,2.1-0.8
			c0.3-0.2,0.6-0.3,0.8-0.3l0.3-0.2c0.2,0,0.3-0.2,0.3-0.2c0.2-0.2,0.5-0.3,0.6-0.3L77,83l0.3-0.2l0.5-0.3l0.3-0.2
			c0.2-0.2,0.5-0.2,0.5-0.3h0.2l-0.2,0.2c0,0-0.3,0.2-0.5,0.3c-1,0.6-1.8,1.3-2.9,1.8c-1,0.5-2.1,1-3.2,1.3s-2.4,0.5-3.5,0.3
			c-0.6,0-1.1-0.2-1.8-0.5c-0.5-0.2-1.1-0.5-1.6-1c-1-0.8-1.8-1.6-2.4-2.7c-0.3-0.5-0.6-1.1-0.8-1.6c-0.3-0.5-0.5-1.1-0.6-1.6
			c-0.2-0.5-0.3-1.1-0.6-1.8l-0.5-1.8c-0.3-1-0.5-2.1-0.6-3.1c0.2,1,0.2,1.3,0.3,1.6v0.3L59.6,73c-0.2-0.8-0.3-1.4-0.3-2.3
			c0-1-0.2-1.4-0.2-2.3L58.3,62v3.2c0,0.6,0.3,1.3,0.2,1.9c-0.5,2.6,1.1,7.6,1.3,10.1c-0.2-0.2-1.8-5.6-2.1-6.8
			c-0.5-1.8-1-7.7-0.6-3.5l0.2,4.7c0.3,1.6,0.6,3.4,1.1,5c0,0.2,0,0.2,0.2,0.3c0.6,1.4,1,2.6,1.1,2.9c0.5,0.8,1.1,1.9,1.3,2.4
			c1.1,1.8,0.6,1.3-0.5-0.5c0,0,0-0.2-0.2-0.2c0,0,0,0.2,0.2,0.2c0.5,0.8,1,1.8,1.6,2.4l0.3,0.3l0.3,0.3l0.2,0.2l0.2,0.2l0.3,0.3
			l0.3,0.3l0.2,0.2l0.2,0.2l0.3,0.3l0.3,0.2c0.5,0.3,1,0.6,1.4,0.8l0.8,0.3c0.2,0,0.3,0,0.3,0.2h0.3c0.2,0,0.3,0.2,0.6,0.2h2.6
			c0.3,0,0.6,0,0.8-0.2c0.3,0,0.5,0,0.6-0.2c0.3,0,0.6-0.2,0.8-0.2s2.3-0.6,4.3-1.9c2.7-1.6,5.8-4,7.9-6
			C86.6,77.2,86.6,77,88.4,75.5L88.4,75.5z"/>
	</g>
</g>
</svg>
