<?xml version="1.0" encoding="utf-8"?>
<!-- Generator: Adobe Illustrator 22.0.1, SVG Export Plug-In . SVG Version: 6.00 Build 0)  -->
<!DOCTYPE svg PUBLIC "-//W3C//DTD SVG 1.1//EN" "http://www.w3.org/Graphics/SVG/1.1/DTD/svg11.dtd">
<svg version="1.1" id="Layer_1" xmlns="http://www.w3.org/2000/svg" xmlns:xlink="http://www.w3.org/1999/xlink" x="0px" y="0px"
	 width="45px" height="45px" viewBox="0 0 45 45" style="enable-background:new 0 0 45 45;" xml:space="preserve">
<style type="text/css">
	.st0{fill:#F7BE58;}
</style>
<title>art-tools</title>
<desc>Created with Sketch.</desc>
<g id="People">
	<g id="Icon-22" transform="translate(-6.000000, 0.000000)">
		<path id="art-tools" class="st0" d="M39.4,35.6c-0.4,0-0.7,0.3-0.7,0.7v1.5c0,0.4,0.3,0.7,0.7,0.7c0.4,0,0.7-0.3,0.7-0.7v-1.5
			C40.1,35.9,39.8,35.6,39.4,35.6L39.4,35.6z M40.1,27.6c0-0.4-0.3-0.7-0.7-0.7c-0.4,0-0.7,0.3-0.7,0.7v5.8c0,0.4,0.3,0.7,0.7,0.7
			c0.4,0,0.7-0.3,0.7-0.7V27.6z M44.5,19.6h-32c-0.8,0-1.5,0.7-1.5,1.5V24c0,0.8,0.7,1.5,1.5,1.5v15.3c0,2,1.6,3.6,3.6,3.6h24.7
			c2,0,3.6-1.6,3.6-3.6V27.6c0-0.4-0.3-0.7-0.7-0.7S43,27.2,43,27.6v13.1c0,1.2-1,2.2-2.2,2.2H16.1c-1.2,0-2.2-1-2.2-2.2v-16
			c0-0.4-0.3-0.7-0.7-0.7h-0.7v-2.9h32V24H16.1c-0.4,0-0.7,0.3-0.7,0.7c0,0.4,0.3,0.7,0.7,0.7h28.4c0.8,0,1.5-0.7,1.5-1.5v-2.9
			C45.9,20.3,45.3,19.6,44.5,19.6L44.5,19.6z M27,12.7v4.7c0,0.4,0.3,0.7,0.7,0.7s0.7-0.3,0.7-0.7v-5.1c0-0.2-0.1-0.4-0.3-0.6
			c-0.7-0.6-1.2-1.4-1.2-2.3c0-1.8,1.8-4.9,2.9-6.7c1.1,1.8,2.9,4.9,2.9,6.7c0,1.4-1,2.6-2.3,2.9c-0.4,0.1-0.6,0.5-0.6,0.9
			c0.1,0.4,0.5,0.6,0.9,0.6c2-0.4,3.5-2.2,3.5-4.3c0-3.1-3.6-8.2-3.8-8.4c-0.3-0.4-0.9-0.4-1.2,0c-0.2,0.2-3.8,5.3-3.8,8.4
			C25.6,10.7,26.1,11.9,27,12.7L27,12.7z M13.2,18.2h1.5c0.4,0,0.7-0.3,0.7-0.7s-0.3-0.7-0.7-0.7h-0.7v-1.5h3.6
			c0.4,0,0.7-0.3,0.7-0.7c0-0.4-0.3-0.7-0.7-0.7h-3.6v-1.5h0.7c0.4,0,0.7-0.3,0.7-0.7c0-0.4-0.3-0.7-0.7-0.7h-0.7V9.5h0.7
			c0.4,0,0.7-0.3,0.7-0.7S15.1,8,14.7,8h-0.7V6.5h3.6c0.4,0,0.7-0.3,0.7-0.7c0-0.4-0.3-0.7-0.7-0.7h-3.6V2.2h8.7v15.3
			c0,0.4,0.3,0.7,0.7,0.7s0.7-0.3,0.7-0.7v-16c0-0.4-0.3-0.7-0.7-0.7H13.2c-0.4,0-0.7,0.3-0.7,0.7v16C12.5,17.8,12.8,18.2,13.2,18.2
			L13.2,18.2z M39.4,10.2v7.3c0,0.4,0.3,0.7,0.7,0.7c0.4,0,0.7-0.3,0.7-0.7v-7.3c0-0.4-0.3-0.7-0.7-0.7C39.7,9.5,39.4,9.8,39.4,10.2
			L39.4,10.2z M43.7,9.5c-0.4,0-0.7,0.3-0.7,0.7v7.3c0,0.4,0.3,0.7,0.7,0.7s0.7-0.3,0.7-0.7v-7.3C44.5,9.8,44.1,9.5,43.7,9.5
			L43.7,9.5z M36.5,18.2c0.4,0,0.7-0.3,0.7-0.7v-10l2.9-4.7l2.3,3.7h-3.1c-0.4,0-0.7,0.3-0.7,0.7C38.7,7.7,39,8,39.4,8h4.4
			c0.3,0,0.5-0.1,0.6-0.4c0.1-0.2,0.1-0.5,0-0.7l-3.6-5.8c-0.3-0.4-1-0.4-1.2,0l-3.6,5.8c-0.1,0.1-0.1,0.2-0.1,0.4v10.2
			C35.7,17.8,36.1,18.2,36.5,18.2L36.5,18.2z M32.8,15.3v2.2c0,0.4-0.3,0.7-0.7,0.7c-0.4,0-0.7-0.3-0.7-0.7v-2.2
			c0-0.4,0.3-0.7,0.7-0.7C32.5,14.5,32.8,14.9,32.8,15.3L32.8,15.3z"/>
	</g>
</g>
</svg>
