<?xml version="1.0" encoding="utf-8"?>
<!-- Generator: Adobe Illustrator 22.0.1, SVG Export Plug-In . SVG Version: 6.00 Build 0)  -->
<!DOCTYPE svg PUBLIC "-//W3C//DTD SVG 1.1//EN" "http://www.w3.org/Graphics/SVG/1.1/DTD/svg11.dtd">
<svg version="1.1" id="Layer_1" xmlns="http://www.w3.org/2000/svg" xmlns:xlink="http://www.w3.org/1999/xlink" x="0px" y="0px"
	 width="45px" height="45px" viewBox="0 0 45 45" style="enable-background:new 0 0 45 45;" xml:space="preserve">
<style type="text/css">
	.st0{fill:#F7BE58;}
</style>
<title>book-write</title>
<desc>Created with Sketch.</desc>
<g id="People">
	<g id="Icon-5">
		<path id="book-write" class="st0" d="M40.5,36.7c0.4,0,0.7-0.3,0.7-0.7v-26c0-0.4-0.3-0.7-0.7-0.7c-0.4,0-0.7,0.3-0.7,0.7v26
			C39.8,36.3,40.1,36.7,40.5,36.7L40.5,36.7z M42.7,40.3v-0.7h-2.2c-0.4,0-0.7-0.3-0.7-0.7c0-0.4,0.3-0.7,0.7-0.7h2.2V7.8h-2.2
			c-0.4,0-0.7-0.3-0.7-0.7s0.3-0.7,0.7-0.7h1.7l-1.7-3.4l-2.2,4.3v33.1c0,1.2,1,2.2,2.2,2.2C41.7,42.4,42.7,41.5,42.7,40.3
			L42.7,40.3z M44.2,7c0,0,0,0.1,0,0.1v33.1c0,2-1.6,3.6-3.6,3.6s-3.6-1.6-3.6-3.6V7c0-0.1,0-0.2,0.1-0.3l2.9-5.8
			c0.2-0.5,1-0.5,1.3,0L44,6.6C44.1,6.7,44.2,6.9,44.2,7L44.2,7z M23.2,22.2H16c-0.4,0-0.7,0.3-0.7,0.7c0,0.4,0.3,0.7,0.7,0.7h7.2
			c0.4,0,0.7-0.3,0.7-0.7C23.9,22.5,23.6,22.2,23.2,22.2L23.2,22.2z M16,20.8h4.3c0.4,0,0.7-0.3,0.7-0.7c0-0.4-0.3-0.7-0.7-0.7H16
			c-0.4,0-0.7,0.3-0.7,0.7C15.3,20.4,15.6,20.8,16,20.8L16,20.8z M12.4,26.5h14.4V16.4H12.4V26.5z M10.9,27.3V15.7
			c0-0.4,0.3-0.7,0.7-0.7h15.9c0.4,0,0.7,0.3,0.7,0.7v11.6c0,0.4-0.3,0.7-0.7,0.7H11.6C11.2,28,10.9,27.7,10.9,27.3L10.9,27.3z
			 M2.3,7.1v33.2c0,1.2,1,2.2,2.2,2.2h27.5c1.2,0,2.2-1,2.2-2.2V7.8H4.4C3.8,7.8,3,7.6,2.3,7.1L2.3,7.1z M34.8,2H3.7
			C2.9,2,2.3,2.6,2.3,3.4v0.7c0,2,1.8,2.2,2.2,2.2h30.3c0.4,0,0.7,0.3,0.7,0.7v33.2c0,2-1.7,3.6-3.6,3.6H4.4c-2,0-3.6-1.7-3.6-3.6
			V3.4c0-1.6,1.3-2.9,2.9-2.9h31.1c0.4,0,0.7,0.3,0.7,0.7S35.2,2,34.8,2L34.8,2z M4.4,41c0.4,0,0.7-0.3,0.7-0.7V9.9
			c0-0.4-0.3-0.7-0.7-0.7S3.7,9.5,3.7,9.9v30.3C3.7,40.7,4,41,4.4,41L4.4,41z M33.3,3.4c0.4,0,0.7,0.3,0.7,0.7s-0.3,0.7-0.7,0.7H4.4
			C4,4.9,3.7,4.5,3.7,4.1S4,3.4,4.4,3.4H33.3z"/>
	</g>
</g>
</svg>
